<svg width="598" height="891" viewBox="0 0 598 891" fill="none" xmlns="http://www.w3.org/2000/svg">
<g clip-path="url(#clip0_169_2)">
<path d="M202.306 757.013V776.123H206.854C269.431 776.123 332.014 776.141 394.604 776.178C397.63 776.172 400.636 776.559 403.5 777.322C410.574 779.242 413.98 783.245 414 789.075C414 796.534 414 803.962 414 811.453C414 820.189 407.909 824.984 396.578 825C369.995 825 343.409 825 316.819 825H196.595C191.826 825 187.368 824.436 184.703 820.886C180.084 814.751 185.354 807.786 194.571 807.786C258.417 807.786 322.272 807.786 386.138 807.786C393.652 807.786 392.931 808.718 392.991 802.301C392.991 800.319 392.811 798.313 392.991 796.338C393.311 793.643 392.169 792.726 388.533 792.758C371.741 792.914 354.95 792.828 338.159 792.828H196.284C187.268 792.828 183.26 789.694 183.26 782.721C183.26 772.276 183.571 761.816 183.14 751.379C182.859 744.429 186.396 739.885 197.857 740.002C225.078 740.269 252.299 740.088 279.519 740.088C319.848 740.088 360.173 740.088 400.495 740.088C402.765 740.014 405.037 740.218 407.227 740.692C412.447 742.063 414.852 746.106 413.689 750.878C412.818 754.498 408.54 756.919 402.919 756.919H202.306V757.013Z" fill="white"/>
<path d="M597.32 288.72C597.52 336.6 585.6 381.39 562.79 423.32C524.998 492.631 482.166 559.073 434.64 622.11C417.21 645.28 397.15 666.11 372.88 682.32C347.75 699.15 319.99 705.38 289.88 702.68C257.09 699.74 229.7 685.1 204.7 664.85C180.4 645.18 161.43 620.78 143.43 595.56C103.89 540.14 66.7801 483.15 34.3501 423.21C20.3101 397.26 9.73008 370 4.23008 341C0.859808 322.278 -0.52453 303.253 0.100084 284.24C1.62008 219.55 21.1601 160.99 61.1001 109.86C96.3901 64.65 142.23 34.08 196.44 15.93C216.75 9.20476 237.724 4.67884 259 2.43002C280.49 0.0800219 302 -0.839978 323.44 0.900022C387.74 6.10002 446 27 496 68.66C546.9 111.08 578.25 165.21 591.47 230.02C595.233 249.363 597.191 269.014 597.32 288.72Z" fill="black"/>
<path d="M597.32 288.72C597.52 336.6 585.6 381.39 562.79 423.32C524.998 492.631 482.166 559.073 434.64 622.11C417.21 645.28 397.15 666.11 372.88 682.32C347.75 699.15 319.99 705.38 289.88 702.68C257.09 699.74 229.7 685.1 204.7 664.85C180.4 645.18 161.43 620.78 143.43 595.56C103.89 540.14 66.7801 483.15 34.3501 423.21C20.3101 397.26 9.73008 370 4.23008 341C0.859808 322.278 -0.52453 303.253 0.100084 284.24C1.62008 219.55 21.1601 160.99 61.1001 109.86C96.3901 64.65 142.23 34.08 196.44 15.93C216.75 9.20476 237.724 4.67884 259 2.43002C280.49 0.0800219 302 -0.839978 323.44 0.900022C387.74 6.10002 446 27 496 68.66C546.9 111.08 578.25 165.21 591.47 230.02C595.233 249.363 597.191 269.014 597.32 288.72Z" fill="url(#paint0_linear_169_2)"/>
<path d="M300.82 856.975C279.333 857.288 258.275 854.574 237.247 851.571C231.561 850.771 225.885 849.81 220.239 848.817C217.247 848.297 215.072 846.912 215.002 844.294C214.932 841.812 216.638 840.226 219.82 840.138C224.628 840.002 229.436 839.994 234.245 840.002C279.573 840.061 324.901 840.128 370.229 840.202C372.134 840.202 374.029 840.202 375.935 840.202C379.456 840.202 381.411 841.804 381.92 844.366C382.428 846.928 380.463 848.433 377.6 848.993C372.224 850.05 366.837 851.083 361.38 851.803C350.068 853.301 338.756 854.862 327.364 855.871C318.566 856.671 309.668 856.647 300.82 856.975Z" fill="white"/>
<path d="M301 270.63H424.8C422.56 264.29 420.9 258.26 418.35 252.63C400.35 212.7 369.02 189.32 326.61 180.41C299.552 174.591 271.379 176.873 245.61 186.97C245.09 187.16 244.55 187.3 243.61 187.6L221.14 131.82C234 128.2 246.41 124.2 259 121.27C275.843 117.499 293.159 116.302 310.36 117.72C350.36 120.72 387.05 133.34 418.93 158.16C453.11 184.77 474.54 219.62 483.06 262.03C490.76 300.35 485.41 337.43 470.14 373.2C454.74 409.27 430.67 438.03 397.32 458.88C396.32 459.49 395.32 460.04 394.1 460.77C385.67 443.06 377.3 425.49 368.81 407.64C396.81 388.33 415.25 362.54 423.27 328.72H417.88C388.69 328.72 359.49 328.72 330.3 328.64C328.72 328.64 326.24 327.83 325.72 326.7C317.45 308.29 309.39 289.77 301 270.63Z" fill="white"/>
<path d="M358.87 413.18C367.69 430.88 376.31 448.18 385.1 465.86C331.71 491.67 277.73 492.05 222.6 470.14L245.68 601.8L244.98 602C235.9 584.787 226.82 567.58 217.74 550.38C189.11 496.28 160.33 442.26 131.87 388.06C121.6 368.49 114.26 347.73 111.1 325.78C105.25 285.11 113.03 246.85 132.91 211.06C151.17 178.2 177.34 153.57 211.47 136.91C218.97 155.41 226.38 173.71 233.9 192.27C229.32 195.27 224.58 198.18 220.14 201.45C192.14 222.1 174.25 249.45 168.75 283.82C163.47 316.82 171.65 347.17 191.75 373.93C212.17 401.12 239.36 418.19 272.57 425.18C301.57 431.29 329.51 427.33 356.22 414.55C357 414.18 357.76 413.75 358.87 413.18Z" fill="white"/>
</g>
<defs>
<linearGradient id="paint0_linear_169_2" x1="458.214" y1="-0.00242084" x2="118.601" y2="730.956" gradientUnits="userSpaceOnUse">
<stop/>
</linearGradient>
<clipPath id="clip0_169_2">
<rect width="597.32" height="890.23" fill="white"/>
</clipPath>
</defs>
</svg>
