<svg width="447" height="614" viewBox="0 0 447 614" fill="none" xmlns="http://www.w3.org/2000/svg">
<path d="M446.398 28.7349V210.499C430.929 189.873 411.335 174.146 387.615 163.317C363.896 152.489 339.145 147.075 313.363 147.075C266.955 147.075 229.313 162.802 200.437 194.256C172.077 225.195 157.897 263.352 157.897 308.729C157.897 354.621 172.335 392.52 201.211 422.428C230.602 452.335 268.76 467.289 315.683 467.289C340.434 467.289 364.411 461.874 387.615 451.046C410.819 439.702 430.413 424.49 446.398 405.412V586.402C432.476 591.043 419.327 594.91 406.952 598.004C394.576 601.613 382.459 604.707 370.599 607.285C361.317 609.348 351.778 610.895 341.981 611.926C332.699 612.958 322.902 613.473 312.589 613.473C271.853 613.473 232.665 606.254 195.023 591.816C157.897 576.863 124.122 555.721 93.6991 528.392C61.7293 499.516 38.0098 466.515 22.5405 429.389C7.58686 391.747 0.110047 351.269 0.110047 307.955C0.110047 268.251 7.32904 229.835 21.767 192.709C36.7206 155.583 58.1198 122.84 85.9645 94.4793C113.809 66.1189 146.552 43.6885 184.194 27.188C221.836 10.1718 260.767 1.14802 300.987 0.116714C302.019 0.116714 303.05 0.116714 304.081 0.116714C305.628 0.116714 306.917 0.116714 307.948 0.116714C332.184 0.116714 355.645 2.69494 378.334 7.85139C401.538 13.0078 424.226 20.2268 446.398 29.5084V28.7349Z" fill="url(#paint0_linear_167_13)"/>
<defs>
<linearGradient id="paint0_linear_167_13" x1="491" y1="364.504" x2="-20" y2="364.504" gradientUnits="userSpaceOnUse">
<stop stop-color="white"/>
</linearGradient>
</defs>
</svg>
