<svg width="432" height="614" viewBox="0 0 432 614" fill="none" xmlns="http://www.w3.org/2000/svg">
<path d="M407.046 47.298L346.715 164.864C332.793 153.52 317.066 144.497 299.534 137.793C282.518 130.574 264.728 126.965 246.165 126.965C243.587 126.965 240.751 127.223 237.657 127.738C234.563 127.738 231.469 128.254 228.376 129.285C216.516 131.863 205.687 137.02 195.89 144.754C186.093 152.489 181.194 162.802 181.194 175.693C181.194 188.068 185.835 198.123 195.117 205.858C204.398 213.077 214.453 219.007 225.282 223.648C229.407 225.195 233.274 226.741 236.884 228.288C241.009 229.32 244.876 230.351 248.486 231.382L287.159 242.211C327.895 254.586 361.927 272.634 389.256 296.353C417.101 319.557 431.023 354.879 431.023 402.318C431.023 404.38 431.023 406.443 431.023 408.505C431.023 410.568 431.023 412.631 431.023 414.693C429.992 441.506 425.093 467.804 416.327 493.586C407.561 518.853 392.35 540.768 370.693 559.331C351.098 576.347 328.926 588.98 304.175 597.23C279.424 605.481 254.158 610.637 228.376 612.7C224.25 612.7 220.125 612.7 216 612.7C212.391 613.215 208.781 613.473 205.172 613.473C168.561 613.473 132.724 607.801 97.6603 596.457C62.5966 584.597 30.1112 568.354 0.2039 547.729L65.1748 424.748C84.2536 441.764 104.879 456.202 127.052 468.062C149.74 479.922 173.975 485.852 199.757 485.852C200.789 485.852 201.82 485.852 202.851 485.852C203.883 485.852 204.914 485.852 205.945 485.852C222.961 484.82 238.431 479.664 252.353 470.382C266.275 460.585 273.236 446.147 273.236 427.069C273.236 412.631 267.307 401.029 255.447 392.263C244.103 383.497 231.212 376.536 216.774 371.379C210.586 369.317 204.398 367.512 198.211 365.965C192.023 363.902 186.351 362.098 181.194 360.551C180.163 360.035 178.874 359.777 177.327 359.777C176.296 359.262 175.264 358.746 174.233 358.23C128.341 345.339 91.7304 328.839 64.4014 308.729C37.0723 288.619 23.4078 250.977 23.4078 195.803C23.4078 136.504 42.2287 89.065 79.8706 53.4857C118.028 17.9064 166.241 0.116714 224.508 0.116714C236.368 0.116714 248.486 0.890183 260.861 2.43712C273.236 3.46842 285.612 5.531 297.987 8.62484C317.582 12.75 336.66 18.1642 355.224 24.8675C374.302 31.5709 391.576 39.3055 407.046 48.0715V47.298Z" fill="url(#paint0_linear_167_11)"/>
<defs>
<linearGradient id="paint0_linear_167_11" x1="454" y1="364.504" x2="-23" y2="364.504" gradientUnits="userSpaceOnUse">
<stop stop-color="white"/>
</linearGradient>
</defs>
</svg>
